<mxfile host="app.diagrams.net" modified="2021-11-17T10:12:06.265Z" agent="5.0 (Macintosh; Intel Mac OS X 10_14_0) AppleWebKit/537.36 (KHTML, like Gecko) Chrome/95.0.4638.69 Safari/537.36" etag="dn4gyzPvIxmOM-zbcXGu" version="15.7.4" type="github">
  <diagram id="sKUJTxQoF4QoumF4Ol1D" name="Page-1">
    <mxGraphModel dx="946" dy="589" grid="1" gridSize="10" guides="1" tooltips="1" connect="1" arrows="1" fold="1" page="1" pageScale="1" pageWidth="827" pageHeight="1169" math="0" shadow="0">
      <root>
        <mxCell id="0" />
        <mxCell id="1" parent="0" />
        <mxCell id="OMt0fs_pYpQDrTaaNbym-18" value="CA" style="shape=umlLifeline;perimeter=lifelinePerimeter;container=1;collapsible=0;recursiveResize=0;rounded=0;shadow=0;strokeWidth=1;" vertex="1" parent="1">
          <mxGeometry x="180" y="130" width="100" height="490" as="geometry" />
        </mxCell>
        <mxCell id="OMt0fs_pYpQDrTaaNbym-19" value="" style="html=1;points=[];perimeter=orthogonalPerimeter;" vertex="1" parent="OMt0fs_pYpQDrTaaNbym-18">
          <mxGeometry x="45" y="70" width="10" height="80" as="geometry" />
        </mxCell>
        <mxCell id="OMt0fs_pYpQDrTaaNbym-20" value="Endorse Node" style="shape=umlLifeline;perimeter=lifelinePerimeter;container=1;collapsible=0;recursiveResize=0;rounded=0;shadow=0;strokeWidth=1;" vertex="1" parent="1">
          <mxGeometry x="330" y="130" width="100" height="480" as="geometry" />
        </mxCell>
        <mxCell id="OMt0fs_pYpQDrTaaNbym-21" value="" style="html=1;points=[];perimeter=orthogonalPerimeter;" vertex="1" parent="OMt0fs_pYpQDrTaaNbym-20">
          <mxGeometry x="45" y="180" width="10" height="60" as="geometry" />
        </mxCell>
        <mxCell id="OMt0fs_pYpQDrTaaNbym-22" value="user identification" style="verticalAlign=bottom;endArrow=open;dashed=1;endSize=8;shadow=0;strokeWidth=1;exitX=-0.1;exitY=0.913;exitDx=0;exitDy=0;exitPerimeter=0;" edge="1" parent="1" source="OMt0fs_pYpQDrTaaNbym-19">
          <mxGeometry x="0.0213" y="-3" relative="1" as="geometry">
            <mxPoint x="59.5" y="273.03999999999996" as="targetPoint" />
            <mxPoint x="240" y="362" as="sourcePoint" />
            <mxPoint as="offset" />
          </mxGeometry>
        </mxCell>
        <mxCell id="OMt0fs_pYpQDrTaaNbym-23" value="request for authorization" style="verticalAlign=bottom;endArrow=block;shadow=0;strokeWidth=1;" edge="1" parent="1">
          <mxGeometry x="0.4754" relative="1" as="geometry">
            <mxPoint x="200" y="210" as="sourcePoint" />
            <mxPoint x="220" y="210" as="targetPoint" />
            <Array as="points">
              <mxPoint x="60" y="210" />
            </Array>
            <mxPoint as="offset" />
          </mxGeometry>
        </mxCell>
        <mxCell id="OMt0fs_pYpQDrTaaNbym-25" value="propose&amp;nbsp; training result" style="html=1;verticalAlign=bottom;endArrow=block;rounded=0;" edge="1" parent="1">
          <mxGeometry x="0.1738" width="80" relative="1" as="geometry">
            <mxPoint x="59.5" y="310" as="sourcePoint" />
            <mxPoint x="370" y="310" as="targetPoint" />
            <mxPoint x="1" as="offset" />
          </mxGeometry>
        </mxCell>
        <mxCell id="OMt0fs_pYpQDrTaaNbym-26" value="proposal response" style="html=1;verticalAlign=bottom;endArrow=open;dashed=1;endSize=8;rounded=0;" edge="1" parent="1">
          <mxGeometry relative="1" as="geometry">
            <mxPoint x="370" y="370" as="sourcePoint" />
            <mxPoint x="59.5" y="370" as="targetPoint" />
          </mxGeometry>
        </mxCell>
        <mxCell id="OMt0fs_pYpQDrTaaNbym-27" value="Order Node" style="shape=umlLifeline;perimeter=lifelinePerimeter;whiteSpace=wrap;html=1;container=1;collapsible=0;recursiveResize=0;outlineConnect=0;" vertex="1" parent="1">
          <mxGeometry x="460" y="130" width="100" height="480" as="geometry" />
        </mxCell>
        <mxCell id="OMt0fs_pYpQDrTaaNbym-28" value="" style="html=1;points=[];perimeter=orthogonalPerimeter;" vertex="1" parent="OMt0fs_pYpQDrTaaNbym-27">
          <mxGeometry x="45" y="260" width="10" height="100" as="geometry" />
        </mxCell>
        <mxCell id="OMt0fs_pYpQDrTaaNbym-29" value="pack into block" style="edgeStyle=orthogonalEdgeStyle;html=1;align=left;spacingLeft=2;endArrow=block;rounded=0;" edge="1" parent="OMt0fs_pYpQDrTaaNbym-27" target="OMt0fs_pYpQDrTaaNbym-28">
          <mxGeometry relative="1" as="geometry">
            <mxPoint x="54" y="290" as="sourcePoint" />
            <Array as="points">
              <mxPoint x="130" y="290" />
              <mxPoint x="130" y="310" />
            </Array>
            <mxPoint x="130" y="360" as="targetPoint" />
          </mxGeometry>
        </mxCell>
        <mxCell id="OMt0fs_pYpQDrTaaNbym-30" value="deliver&amp;nbsp;" style="html=1;verticalAlign=bottom;endArrow=block;rounded=0;" edge="1" parent="OMt0fs_pYpQDrTaaNbym-27">
          <mxGeometry relative="1" as="geometry">
            <mxPoint x="55" y="350" as="sourcePoint" />
            <mxPoint x="210" y="350" as="targetPoint" />
          </mxGeometry>
        </mxCell>
        <mxCell id="OMt0fs_pYpQDrTaaNbym-31" value="propose transaction" style="html=1;verticalAlign=bottom;endArrow=block;rounded=0;" edge="1" parent="1" source="OMt0fs_pYpQDrTaaNbym-35">
          <mxGeometry relative="1" as="geometry">
            <mxPoint x="79.5" y="400.0000000000001" as="sourcePoint" />
            <mxPoint x="500" y="400" as="targetPoint" />
          </mxGeometry>
        </mxCell>
        <mxCell id="OMt0fs_pYpQDrTaaNbym-32" value="Peers Node" style="shape=umlLifeline;perimeter=lifelinePerimeter;whiteSpace=wrap;html=1;container=1;collapsible=0;recursiveResize=0;outlineConnect=0;" vertex="1" parent="1">
          <mxGeometry x="630" y="130" width="100" height="480" as="geometry" />
        </mxCell>
        <mxCell id="OMt0fs_pYpQDrTaaNbym-33" value="" style="html=1;points=[];perimeter=orthogonalPerimeter;" vertex="1" parent="OMt0fs_pYpQDrTaaNbym-32">
          <mxGeometry x="45" y="330" width="10" height="70" as="geometry" />
        </mxCell>
        <mxCell id="OMt0fs_pYpQDrTaaNbym-34" value="synchronize" style="edgeStyle=orthogonalEdgeStyle;html=1;align=left;spacingLeft=2;endArrow=block;rounded=0;" edge="1" parent="OMt0fs_pYpQDrTaaNbym-32">
          <mxGeometry relative="1" as="geometry">
            <mxPoint x="56" y="365" as="sourcePoint" />
            <Array as="points">
              <mxPoint x="120" y="365" />
              <mxPoint x="120" y="390" />
            </Array>
            <mxPoint x="56" y="390" as="targetPoint" />
          </mxGeometry>
        </mxCell>
        <mxCell id="OMt0fs_pYpQDrTaaNbym-35" value="Computing site" style="shape=umlLifeline;perimeter=lifelinePerimeter;whiteSpace=wrap;html=1;container=1;collapsible=0;recursiveResize=0;outlineConnect=0;" vertex="1" parent="1">
          <mxGeometry x="10" y="130" width="100" height="480" as="geometry" />
        </mxCell>
        <mxCell id="OMt0fs_pYpQDrTaaNbym-36" value="" style="html=1;points=[];perimeter=orthogonalPerimeter;" vertex="1" parent="OMt0fs_pYpQDrTaaNbym-35">
          <mxGeometry x="45" y="70" width="10" height="80" as="geometry" />
        </mxCell>
        <mxCell id="OMt0fs_pYpQDrTaaNbym-37" value="" style="html=1;points=[];perimeter=orthogonalPerimeter;" vertex="1" parent="OMt0fs_pYpQDrTaaNbym-35">
          <mxGeometry x="45" y="170" width="10" height="110" as="geometry" />
        </mxCell>
      </root>
    </mxGraphModel>
  </diagram>
</mxfile>
